<mxfile host="app.diagrams.net" modified="2022-07-27T13:12:07.739Z" agent="5.0 (Windows NT 10.0; Win64; x64) AppleWebKit/537.36 (KHTML, like Gecko) Chrome/103.0.0.0 Safari/537.36" etag="O2hSu5slg2vI3xZNzYMx" version="20.1.3" type="github">
  <diagram id="--iaB-y_NHMg3qrDVLHC" name="Page-1">
    <mxGraphModel dx="1422" dy="762" grid="1" gridSize="10" guides="1" tooltips="1" connect="1" arrows="1" fold="1" page="1" pageScale="1" pageWidth="827" pageHeight="1169" math="0" shadow="0">
      <root>
        <mxCell id="0" />
        <mxCell id="1" parent="0" />
        <mxCell id="Yeih-XUbQKEbiGGxzSD3-2" value="Propriétaire du channel" style="text;html=1;strokeColor=#666666;fillColor=#f5f5f5;align=center;verticalAlign=middle;whiteSpace=wrap;rounded=0;fontColor=#333333;" vertex="1" parent="1">
          <mxGeometry x="27" y="15" width="130" height="30" as="geometry" />
        </mxCell>
        <mxCell id="Yeih-XUbQKEbiGGxzSD3-3" value="Utilisateur" style="text;html=1;strokeColor=#666666;fillColor=#f5f5f5;align=center;verticalAlign=middle;whiteSpace=wrap;rounded=0;fontColor=#333333;" vertex="1" parent="1">
          <mxGeometry x="661" y="15" width="60" height="30" as="geometry" />
        </mxCell>
        <mxCell id="Yeih-XUbQKEbiGGxzSD3-4" value="Serveur API" style="rounded=0;whiteSpace=wrap;html=1;" vertex="1" parent="1">
          <mxGeometry x="331" width="120" height="60" as="geometry" />
        </mxCell>
        <mxCell id="Yeih-XUbQKEbiGGxzSD3-5" value="" style="endArrow=none;html=1;rounded=0;" edge="1" parent="1">
          <mxGeometry width="50" height="50" relative="1" as="geometry">
            <mxPoint x="191" y="405" as="sourcePoint" />
            <mxPoint x="191" y="45" as="targetPoint" />
          </mxGeometry>
        </mxCell>
        <mxCell id="Yeih-XUbQKEbiGGxzSD3-6" value="" style="endArrow=none;html=1;rounded=0;" edge="1" parent="1">
          <mxGeometry width="50" height="50" relative="1" as="geometry">
            <mxPoint x="591" y="405" as="sourcePoint" />
            <mxPoint x="591" y="45" as="targetPoint" />
          </mxGeometry>
        </mxCell>
        <mxCell id="Yeih-XUbQKEbiGGxzSD3-7" value="1) Création d&#39;une identité" style="text;html=1;align=center;verticalAlign=middle;whiteSpace=wrap;rounded=0;fillColor=#d5e8d4;strokeColor=#82b366;" vertex="1" parent="1">
          <mxGeometry x="1" y="85" width="140" height="30" as="geometry" />
        </mxCell>
        <mxCell id="Yeih-XUbQKEbiGGxzSD3-8" value="1) Création d&#39;une identité" style="text;html=1;align=center;verticalAlign=middle;whiteSpace=wrap;rounded=0;fillColor=#d5e8d4;strokeColor=#82b366;" vertex="1" parent="1">
          <mxGeometry x="601" y="85" width="140" height="30" as="geometry" />
        </mxCell>
        <mxCell id="Yeih-XUbQKEbiGGxzSD3-9" value="2) Création du channel" style="text;html=1;align=center;verticalAlign=middle;whiteSpace=wrap;rounded=0;fillColor=#d5e8d4;strokeColor=#82b366;" vertex="1" parent="1">
          <mxGeometry x="1" y="135" width="140" height="30" as="geometry" />
        </mxCell>
        <mxCell id="Yeih-XUbQKEbiGGxzSD3-10" value="" style="rounded=0;whiteSpace=wrap;html=1;" vertex="1" parent="1">
          <mxGeometry x="371" y="135" width="40" height="30" as="geometry" />
        </mxCell>
        <mxCell id="Yeih-XUbQKEbiGGxzSD3-11" value="" style="endArrow=classic;html=1;rounded=0;entryX=0;entryY=0.5;entryDx=0;entryDy=0;exitX=1;exitY=0.5;exitDx=0;exitDy=0;" edge="1" parent="1" source="Yeih-XUbQKEbiGGxzSD3-9" target="Yeih-XUbQKEbiGGxzSD3-10">
          <mxGeometry width="50" height="50" relative="1" as="geometry">
            <mxPoint x="381" y="355" as="sourcePoint" />
            <mxPoint x="431" y="305" as="targetPoint" />
          </mxGeometry>
        </mxCell>
        <mxCell id="Yeih-XUbQKEbiGGxzSD3-12" value="[POST] channels/create" style="text;html=1;strokeColor=none;fillColor=none;align=center;verticalAlign=middle;whiteSpace=wrap;rounded=0;" vertex="1" parent="1">
          <mxGeometry x="250" y="115" width="60" height="30" as="geometry" />
        </mxCell>
        <mxCell id="Yeih-XUbQKEbiGGxzSD3-13" value="Légende&amp;nbsp;" style="text;html=1;strokeColor=#666666;fillColor=#f5f5f5;align=center;verticalAlign=middle;whiteSpace=wrap;rounded=0;fontColor=#333333;" vertex="1" parent="1">
          <mxGeometry x="31" y="415" width="60" height="30" as="geometry" />
        </mxCell>
        <mxCell id="Yeih-XUbQKEbiGGxzSD3-14" value="Antérieurement" style="rounded=0;whiteSpace=wrap;html=1;fillColor=#d5e8d4;strokeColor=#82b366;" vertex="1" parent="1">
          <mxGeometry x="11" y="445" width="100" height="30" as="geometry" />
        </mxCell>
        <mxCell id="Yeih-XUbQKEbiGGxzSD3-15" value="Présent" style="text;html=1;strokeColor=#b85450;fillColor=#f8cecc;align=center;verticalAlign=middle;whiteSpace=wrap;rounded=0;" vertex="1" parent="1">
          <mxGeometry x="11" y="475" width="100" height="30" as="geometry" />
        </mxCell>
        <mxCell id="Yeih-XUbQKEbiGGxzSD3-16" value="Automatiquelent" style="text;html=1;strokeColor=#6c8ebf;fillColor=#dae8fc;align=center;verticalAlign=middle;whiteSpace=wrap;rounded=0;" vertex="1" parent="1">
          <mxGeometry x="11" y="505" width="100" height="30" as="geometry" />
        </mxCell>
        <mxCell id="Yeih-XUbQKEbiGGxzSD3-21" style="edgeStyle=orthogonalEdgeStyle;rounded=0;orthogonalLoop=1;jettySize=auto;html=1;entryX=1;entryY=0.5;entryDx=0;entryDy=0;" edge="1" parent="1" source="Yeih-XUbQKEbiGGxzSD3-19" target="Yeih-XUbQKEbiGGxzSD3-20">
          <mxGeometry relative="1" as="geometry" />
        </mxCell>
        <mxCell id="Yeih-XUbQKEbiGGxzSD3-19" value="3) Demande à rejoindre le channel" style="text;html=1;strokeColor=#b85450;fillColor=#f8cecc;align=center;verticalAlign=middle;whiteSpace=wrap;rounded=0;" vertex="1" parent="1">
          <mxGeometry x="601" y="175" width="190" height="30" as="geometry" />
        </mxCell>
        <mxCell id="Yeih-XUbQKEbiGGxzSD3-20" value="" style="rounded=0;whiteSpace=wrap;html=1;" vertex="1" parent="1">
          <mxGeometry x="371" y="175" width="40" height="30" as="geometry" />
        </mxCell>
        <mxCell id="Yeih-XUbQKEbiGGxzSD3-27" style="edgeStyle=orthogonalEdgeStyle;rounded=0;orthogonalLoop=1;jettySize=auto;html=1;entryX=0;entryY=0.5;entryDx=0;entryDy=0;" edge="1" parent="1" source="Yeih-XUbQKEbiGGxzSD3-23" target="Yeih-XUbQKEbiGGxzSD3-26">
          <mxGeometry relative="1" as="geometry" />
        </mxCell>
        <mxCell id="Yeih-XUbQKEbiGGxzSD3-23" value="4) Affiche l&#39;ensemble des demandes pour rejoindre le channel" style="text;html=1;strokeColor=#6c8ebf;fillColor=#dae8fc;align=center;verticalAlign=middle;whiteSpace=wrap;rounded=0;" vertex="1" parent="1">
          <mxGeometry x="1" y="210" width="170" height="40" as="geometry" />
        </mxCell>
        <mxCell id="Yeih-XUbQKEbiGGxzSD3-25" value="[POST]&amp;nbsp; subscription/request/&lt;br&gt;{channelAddress}" style="text;html=1;strokeColor=none;fillColor=none;align=center;verticalAlign=middle;whiteSpace=wrap;rounded=0;" vertex="1" parent="1">
          <mxGeometry x="471" y="155" width="60" height="30" as="geometry" />
        </mxCell>
        <mxCell id="Yeih-XUbQKEbiGGxzSD3-26" value="" style="rounded=0;whiteSpace=wrap;html=1;" vertex="1" parent="1">
          <mxGeometry x="371" y="215" width="40" height="30" as="geometry" />
        </mxCell>
        <mxCell id="Yeih-XUbQKEbiGGxzSD3-28" value="[GET] subscription/{channelAddresse}" style="text;html=1;strokeColor=none;fillColor=none;align=center;verticalAlign=middle;whiteSpace=wrap;rounded=0;" vertex="1" parent="1">
          <mxGeometry x="250" y="195" width="60" height="30" as="geometry" />
        </mxCell>
        <mxCell id="Yeih-XUbQKEbiGGxzSD3-32" style="edgeStyle=orthogonalEdgeStyle;rounded=0;orthogonalLoop=1;jettySize=auto;html=1;" edge="1" parent="1" source="Yeih-XUbQKEbiGGxzSD3-30" target="Yeih-XUbQKEbiGGxzSD3-31">
          <mxGeometry relative="1" as="geometry" />
        </mxCell>
        <mxCell id="Yeih-XUbQKEbiGGxzSD3-30" value="4.1) Accepte la demande" style="text;html=1;strokeColor=#b85450;fillColor=#f8cecc;align=center;verticalAlign=middle;whiteSpace=wrap;rounded=0;" vertex="1" parent="1">
          <mxGeometry x="1" y="261" width="150" height="30" as="geometry" />
        </mxCell>
        <mxCell id="Yeih-XUbQKEbiGGxzSD3-31" value="" style="rounded=0;whiteSpace=wrap;html=1;" vertex="1" parent="1">
          <mxGeometry x="371" y="261" width="40" height="30" as="geometry" />
        </mxCell>
        <mxCell id="Yeih-XUbQKEbiGGxzSD3-33" value="[POST] subscription/authorize/&lt;br&gt;{channelAddresse}" style="text;html=1;strokeColor=none;fillColor=none;align=center;verticalAlign=middle;whiteSpace=wrap;rounded=0;" vertex="1" parent="1">
          <mxGeometry x="250" y="239" width="60" height="30" as="geometry" />
        </mxCell>
        <mxCell id="Yeih-XUbQKEbiGGxzSD3-36" style="edgeStyle=orthogonalEdgeStyle;rounded=0;orthogonalLoop=1;jettySize=auto;html=1;entryX=1;entryY=0.5;entryDx=0;entryDy=0;" edge="1" parent="1" source="Yeih-XUbQKEbiGGxzSD3-34" target="Yeih-XUbQKEbiGGxzSD3-35">
          <mxGeometry relative="1" as="geometry" />
        </mxCell>
        <mxCell id="Yeih-XUbQKEbiGGxzSD3-34" value="5) Écrit sur le channel" style="text;html=1;strokeColor=#b85450;fillColor=#f8cecc;align=center;verticalAlign=middle;whiteSpace=wrap;rounded=0;" vertex="1" parent="1">
          <mxGeometry x="601" y="299" width="130" height="30" as="geometry" />
        </mxCell>
        <mxCell id="Yeih-XUbQKEbiGGxzSD3-35" value="" style="rounded=0;whiteSpace=wrap;html=1;" vertex="1" parent="1">
          <mxGeometry x="371" y="299" width="40" height="30" as="geometry" />
        </mxCell>
        <mxCell id="Yeih-XUbQKEbiGGxzSD3-37" value="" style="rounded=0;whiteSpace=wrap;html=1;" vertex="1" parent="1">
          <mxGeometry x="371" y="341" width="40" height="30" as="geometry" />
        </mxCell>
        <mxCell id="Yeih-XUbQKEbiGGxzSD3-39" style="edgeStyle=orthogonalEdgeStyle;rounded=0;orthogonalLoop=1;jettySize=auto;html=1;entryX=0;entryY=0.5;entryDx=0;entryDy=0;" edge="1" parent="1" source="Yeih-XUbQKEbiGGxzSD3-38" target="Yeih-XUbQKEbiGGxzSD3-37">
          <mxGeometry relative="1" as="geometry" />
        </mxCell>
        <mxCell id="Yeih-XUbQKEbiGGxzSD3-38" value="6) Lit les informations sur le channel" style="text;html=1;strokeColor=#b85450;fillColor=#f8cecc;align=center;verticalAlign=middle;whiteSpace=wrap;rounded=0;" vertex="1" parent="1">
          <mxGeometry x="1" y="341" width="150" height="30" as="geometry" />
        </mxCell>
        <mxCell id="Yeih-XUbQKEbiGGxzSD3-40" value="[POST]&amp;nbsp; channels/logs&lt;br&gt;{channelAddress}" style="text;html=1;strokeColor=none;fillColor=none;align=center;verticalAlign=middle;whiteSpace=wrap;rounded=0;" vertex="1" parent="1">
          <mxGeometry x="471" y="275" width="60" height="30" as="geometry" />
        </mxCell>
        <mxCell id="Yeih-XUbQKEbiGGxzSD3-41" value="[GET]&amp;nbsp; channels/logs&lt;br&gt;{channelAddress}" style="text;html=1;strokeColor=none;fillColor=none;align=center;verticalAlign=middle;whiteSpace=wrap;rounded=0;" vertex="1" parent="1">
          <mxGeometry x="250" y="320" width="60" height="30" as="geometry" />
        </mxCell>
      </root>
    </mxGraphModel>
  </diagram>
</mxfile>
